<?xml version="1.0" standalone="no"?>
<!DOCTYPE svg PUBLIC "-//W3C//DTD SVG 20010904//EN"
 "http://www.w3.org/TR/2001/REC-SVG-20010904/DTD/svg10.dtd">
<svg version="1.0" xmlns="http://www.w3.org/2000/svg"
 width="76.000000pt" height="60.000000pt" viewBox="0 0 76.000000 60.000000"
 preserveAspectRatio="xMidYMid meet">

<g transform="translate(0.000000,60.000000) scale(0.100000,-0.100000)"
fill="#000000" stroke="none">
<path d="M295 430 c-13 -26 -21 -30 -54 -30 -72 0 -71 3 -71 -146 l0 -134 50
0 c46 0 50 -2 50 -24 0 -32 15 -36 125 -36 110 0 125 4 125 36 0 22 4 24 50
24 l50 0 0 134 c0 148 1 146 -69 146 -30 0 -40 5 -54 30 -18 30 -19 30 -102
30 -84 0 -85 0 -100 -30z m182 -27 c24 -39 32 -43 81 -43 l43 0 -3 -102 -3
-103 -48 -3 c-41 -3 -53 1 -73 21 -19 20 -23 29 -16 48 25 66 -48 114 -107 73
-20 -14 -23 -23 -19 -59 7 -57 -21 -85 -86 -85 l-46 0 0 105 0 105 45 0 c42 0
48 3 66 35 20 34 22 35 85 35 58 0 65 -2 81 -27z m-46 -145 c10 -18 8 -24 -11
-40 -17 -13 -26 -15 -41 -8 -18 10 -26 50 -12 63 14 15 53 6 64 -15z"/>
<path d="M375 410 c-4 -7 -3 -16 3 -22 14 -14 45 -2 40 15 -6 16 -34 21 -43 7z"/>
<path d="M350 357 c-61 -21 -98 -104 -70 -158 17 -31 33 -23 26 14 -9 46 9 90
43 110 36 21 54 21 90 2 36 -18 54 -62 46 -109 -8 -40 7 -50 25 -17 16 30 12
73 -10 108 -31 51 -90 71 -150 50z"/>
<path d="M545 331 c-6 -11 9 -23 19 -14 9 9 7 23 -3 23 -6 0 -12 -4 -16 -9z"/>
</g>
</svg>
